<svg width="45" height="45" viewBox="0 0 45 45" fill="none" xmlns="http://www.w3.org/2000/svg">
<circle cx="22.5" cy="22.5" r="22.5" fill="#E2F0FF"/>
<path d="M12.7969 15V31H9.89844V15H12.7969ZM21.3574 31H15.9355V15H21.4668C23.0553 15 24.4199 15.3203 25.5605 15.9609C26.7064 16.5964 27.5866 17.5104 28.2012 18.7031C28.8158 19.8958 29.123 21.3229 29.123 22.9844C29.123 24.651 28.8132 26.0833 28.1934 27.2812C27.5788 28.4792 26.6908 29.3984 25.5293 30.0391C24.373 30.6797 22.9824 31 21.3574 31ZM18.834 28.4922H21.2168C22.3314 28.4922 23.2611 28.2891 24.0059 27.8828C24.7507 27.4714 25.3105 26.8594 25.6855 26.0469C26.0605 25.2292 26.248 24.2083 26.248 22.9844C26.248 21.7604 26.0605 20.7448 25.6855 19.9375C25.3105 19.125 24.7559 18.5182 24.0215 18.1172C23.2923 17.7109 22.3861 17.5078 21.3027 17.5078H18.834V28.4922ZM33.4941 29.0781C33.0202 29.0781 32.6139 28.9115 32.2754 28.5781C31.9368 28.2396 31.7702 27.8333 31.7754 27.3594C31.7702 26.8906 31.9368 26.4896 32.2754 26.1562C32.6139 25.8229 33.0202 25.6562 33.4941 25.6562C33.9525 25.6562 34.3509 25.8229 34.6895 26.1562C35.0332 26.4896 35.2077 26.8906 35.2129 27.3594C35.2077 27.6771 35.1243 27.9661 34.9629 28.2266C34.8066 28.487 34.5983 28.6953 34.3379 28.8516C34.0827 29.0026 33.8014 29.0781 33.4941 29.0781ZM33.4941 21.1484C33.0202 21.1484 32.6139 20.9818 32.2754 20.6484C31.9368 20.3099 31.7702 19.9036 31.7754 19.4297C31.7702 18.9609 31.9368 18.5599 32.2754 18.2266C32.6139 17.888 33.0202 17.7187 33.4941 17.7187C33.9525 17.7187 34.3509 17.888 34.6895 18.2266C35.0332 18.5599 35.2077 18.9609 35.2129 19.4297C35.2077 19.7422 35.1243 20.0286 34.9629 20.2891C34.8066 20.5495 34.5983 20.7578 34.3379 20.9141C34.0827 21.0703 33.8014 21.1484 33.4941 21.1484Z" fill="#17A9E2"/>
</svg>
