<svg width="40" height="40" viewBox="0 0 40 40" fill="none" xmlns="http://www.w3.org/2000/svg">
<path d="M20 40C31.0457 40 40 31.0457 40 20C40 8.9543 31.0457 0 20 0C8.9543 0 0 8.9543 0 20C0 31.0457 8.9543 40 20 40Z" fill="#17A9E2"/>
<path d="M15 14.5462C15.4159 13.3638 16.2369 12.3668 17.3175 11.7317C18.3981 11.0967 19.6686 10.8645 20.9039 11.0764C22.1393 11.2883 23.2598 11.9306 24.067 12.8894C24.8741 13.8483 25.3159 15.0619 25.3141 16.3153C25.3141 19.8536 20.0067 21.6227 20.0067 21.6227" stroke="white" stroke-width="3" stroke-linecap="round" stroke-linejoin="round"/>
<path d="M20.1479 28.7H20.1656" stroke="white" stroke-width="3" stroke-linecap="round" stroke-linejoin="round"/>
</svg>
